<?xml version="1.0" standalone="no"?>
<!DOCTYPE svg PUBLIC "-//W3C//DTD SVG 20010904//EN"
 "http://www.w3.org/TR/2001/REC-SVG-20010904/DTD/svg10.dtd">
<svg version="1.0" xmlns="http://www.w3.org/2000/svg"
 width="320.000000pt" height="320.000000pt" viewBox="0 0 320.000000 320.000000"
 preserveAspectRatio="xMidYMid meet">
<metadata>
Created by potrace 1.11, written by Peter Selinger 2001-2013
</metadata>
<g transform="translate(0.000000,320.000000) scale(0.100000,-0.100000)"
fill="#000000" stroke="none">
<path d="M818 3125 c-5 -5 -108 -17 -163 -19 -16 0 -32 -4 -35 -8 -3 -3 -18
-8 -35 -11 -66 -12 -96 -20 -101 -28 -3 -5 -10 -7 -15 -4 -5 4 -9 1 -9 -4 0
-6 -3 -10 -7 -9 -13 4 -143 -62 -143 -72 0 -6 -4 -9 -9 -8 -23 7 -162 -125
-184 -174 -6 -16 -15 -28 -19 -28 -5 0 -7 -3 -6 -7 1 -5 -3 -18 -10 -30 -7
-13 -10 -23 -6 -23 3 0 1 -7 -6 -15 -7 -8 -9 -15 -6 -15 4 0 2 -10 -5 -21 -9
-17 -8 -20 2 -14 9 6 10 4 3 -6 -13 -20 -13 -151 0 -168 8 -11 8 -13 0 -8 -14
8 -13 -210 0 -232 6 -9 5 -12 -1 -8 -13 8 -12 -212 1 -232 6 -9 5 -12 -1 -8
-13 8 -12 -212 1 -232 6 -9 5 -12 -1 -8 -13 8 -12 -212 1 -232 6 -9 5 -12 -1
-8 -13 8 -12 -212 1 -232 6 -9 5 -12 -1 -8 -13 8 -12 -212 1 -232 6 -9 5 -12
-1 -8 -13 8 -12 -212 1 -232 6 -9 5 -12 -1 -8 -7 4 -9 -35 -7 -116 3 -145 7
-168 38 -244 10 -24 22 -43 26 -43 5 0 11 -8 15 -19 5 -18 70 -88 111 -121 66
-53 199 -126 244 -135 10 -2 27 -8 37 -13 10 -5 38 -13 63 -18 47 -8 55 -10
68 -14 4 -1 11 -2 15 -1 5 1 24 -3 43 -8 20 -6 32 -6 29 0 -4 5 3 6 17 1 37
-13 285 -1 311 15 4 2 24 7 43 9 20 2 49 11 65 19 16 9 31 15 34 15 13 -2 75
25 75 33 0 4 4 6 9 3 4 -3 19 3 31 14 13 11 29 20 37 20 7 0 16 7 19 15 4 8
13 15 21 15 19 0 44 25 35 35 -4 5 -2 6 3 2 6 -3 19 1 30 9 10 8 16 14 12 14
-4 0 8 14 28 31 19 17 35 35 35 40 0 6 9 19 20 31 10 12 17 25 14 30 -3 4 -1
8 4 8 12 0 34 59 27 70 -3 5 -1 10 5 12 6 2 12 29 14 60 3 32 8 63 12 69 5 8
3 9 -5 4 -10 -6 -11 -3 -2 14 8 14 8 21 1 21 -7 0 -8 6 -1 18 6 11 6 24 1 32
-6 9 -5 17 3 22 9 6 9 8 -1 8 -9 0 -10 5 -3 18 6 11 6 24 1 32 -6 9 -5 17 3
22 9 6 9 8 -1 8 -9 0 -10 5 -3 18 6 11 6 24 1 32 -6 9 -5 17 3 22 9 6 9 8 -1
8 -9 0 -10 5 -3 19 6 10 8 21 5 24 -9 9 -11 66 -2 61 4 -3 8 0 8 5 0 6 -3 11
-7 11 -9 0 -9 57 0 66 3 4 2 15 -4 25 -7 14 -6 19 3 19 10 0 10 2 1 8 -8 5 -9
13 -3 22 5 9 5 19 -1 26 -8 9 42 13 218 14 218 1 268 3 358 15 44 5 62 9 85
17 8 3 40 13 70 22 30 9 78 29 106 45 53 31 124 94 124 110 0 5 6 16 14 24 8
8 16 32 18 53 2 22 7 45 12 52 4 6 4 12 -1 12 -4 0 -9 18 -10 41 -1 22 -6 46
-12 53 -6 7 -8 16 -4 19 3 4 -2 9 -11 13 -9 3 -13 10 -10 15 3 5 -2 12 -10 15
-9 3 -16 11 -16 16 0 13 -81 84 -92 80 -4 -1 -8 2 -8 6 0 10 -123 72 -143 72
-7 0 -17 4 -22 9 -11 10 -101 29 -180 38 -27 3 -148 6 -268 7 -169 1 -216 4
-212 13 2 7 -1 13 -8 13 -8 0 -8 3 2 9 9 6 10 10 2 16 -9 5 -9 10 0 21 9 11 9
14 0 14 -8 0 -9 6 -2 18 6 11 6 24 0 35 -7 12 -6 17 3 17 8 0 9 3 3 8 -5 4
-11 15 -11 25 -2 16 22 17 365 18 201 0 375 2 386 5 11 2 39 4 63 5 23 1 42 5
42 8 0 3 15 7 34 8 35 3 217 60 226 72 3 3 26 17 52 29 25 13 55 32 66 42 11
10 22 16 25 13 3 -3 12 4 19 16 7 12 18 21 25 21 7 0 13 3 13 8 0 4 14 22 31
40 16 17 26 32 22 32 -4 0 -3 4 3 8 25 16 57 96 55 140 0 12 4 22 9 22 7 0 7
6 2 18 -5 9 -7 23 -4 31 2 7 -2 17 -9 22 -11 7 -11 9 -1 9 8 0 10 5 5 13 -4 6
-8 18 -9 25 -4 21 -35 84 -58 116 -81 114 -306 236 -481 261 -11 2 -20 4 -20
5 0 3 -41 9 -84 11 -25 1 -52 7 -58 12 -9 6 -13 6 -13 -2 0 -7 -8 -8 -26 -1
-18 7 -23 7 -18 -2 5 -7 3 -8 -5 -3 -17 10 -81 12 -81 2 0 -4 -9 -3 -20 3 -13
7 -20 7 -20 1 0 -6 -6 -8 -14 -5 -23 9 -106 10 -106 1 0 -5 -5 -5 -11 -2 -17
11 -59 13 -59 3 0 -5 -9 -4 -20 2 -12 6 -20 7 -20 1 0 -10 -25 -9 -36 2 -4 3
-15 2 -25 -4 -13 -6 -19 -6 -19 0 0 7 -8 7 -24 1 -13 -5 -26 -6 -29 -3 -9 8
-77 9 -77 0 0 -4 -9 -3 -20 3 -13 7 -20 7 -20 1 0 -6 -6 -8 -14 -5 -23 9 -106
10 -106 1 0 -5 -5 -5 -11 -2 -17 11 -59 13 -59 3 0 -5 -9 -4 -20 2 -12 6 -20
7 -20 1 0 -10 -25 -9 -36 2 -4 3 -15 2 -25 -4 -13 -6 -19 -6 -19 0 0 7 -8 7
-24 1 -13 -5 -26 -6 -29 -3 -9 8 -77 9 -77 0 0 -4 -9 -3 -20 3 -13 7 -20 7
-20 1 0 -6 -6 -8 -14 -5 -23 9 -106 10 -106 1 0 -5 -5 -5 -11 -2 -17 11 -59
13 -59 3 0 -5 -9 -4 -20 2 -12 6 -20 7 -20 1 0 -10 -25 -9 -36 2 -4 3 -15 2
-25 -4 -11 -5 -19 -6 -19 -1 0 4 -9 8 -20 8 -11 0 -20 -4 -20 -8 0 -5 -8 -4
-19 1 -10 6 -20 8 -23 6z"/>
</g>
</svg>
